<svg xmlns="http://www.w3.org/2000/svg" width="134.444" height="51.76" viewBox="0 0 134.444 51.76">
  <g id="그룹_219" data-name="그룹 219" transform="translate(-262.768 -379.366)">
    <path id="패스_75" data-name="패스 75" d="M296.492,400.151A6.982,6.982,0,0,0,290.9,403a11.348,11.348,0,0,0,0,13.762,6.916,6.916,0,0,0,11.193,0,11.354,11.354,0,0,0,0-13.762,6.99,6.99,0,0,0-5.6-2.853Zm2.17,13.2a2.374,2.374,0,0,1-4.327,0,7.164,7.164,0,0,1,0-6.94,2.372,2.372,0,0,1,4.327,0,7.069,7.069,0,0,1,0,6.94Z" transform="translate(14.286 11.508)" fill="#000"/>
    <path id="패스_76" data-name="패스 76" d="M296.181,388.564h.646a1.045,1.045,0,0,1,.977.618,2.758,2.758,0,0,1,.32,1.282v2.613h-4.538v3.269h4.538v1.33h-4.538v3.281h4.538v7.078H303V385.91h-6.816v2.654Z" transform="translate(17.063 3.623)" fill="#000"/>
    <path id="패스_77" data-name="패스 77" d="M302.193,401.466h-4.057V391.195h3.246v-4.287H282.726v4.287h3.079v10.271h-3.079v4.557h19.467v-4.557Zm-8.989,0H290.74V391.195H293.2v10.271Z" transform="translate(11.05 4.176)" fill="#000"/>
    <path id="패스_78" data-name="패스 78" d="M267.2,387.721h-1.45a30.779,30.779,0,0,0-2.037,6.385,43.786,43.786,0,0,0-.945,9.668,44.344,44.344,0,0,0,.935,9.647,29.907,29.907,0,0,0,2.035,6.4h1.445a33.693,33.693,0,0,1-1.885-8.13,76.169,76.169,0,0,1-.451-7.919,78.968,78.968,0,0,1,.466-7.921,33.555,33.555,0,0,1,1.885-8.133Z" transform="translate(0 4.626)" fill="#000"/>
    <path id="패스_79" data-name="패스 79" d="M268.106,403.216a4.812,4.812,0,0,0,1.641-.483,6.632,6.632,0,0,0,1.678-1.167,9.467,9.467,0,0,0,1.361-1.681,8.906,8.906,0,0,0,1-2.225l.144-.092.12.092a9.507,9.507,0,0,0,.883,2.028,9.351,9.351,0,0,0,1.193,1.592,6.6,6.6,0,0,0,1.833,1.378,4.855,4.855,0,0,0,1.77.558l1.645-3.05.043-.2-.1-.087a5.567,5.567,0,0,1-2.01-.589,5.715,5.715,0,0,1-2.2-1.958,8.364,8.364,0,0,1-1.143-2.329,11.787,11.787,0,0,1-.521-3.3h4.892v-3.945H267.5v3.945h4.889a11.933,11.933,0,0,1-.576,3.441,9.082,9.082,0,0,1-1.215,2.4,5.742,5.742,0,0,1-2.146,1.773,5.505,5.505,0,0,1-1.934.556l-.1.087.047.2,1.642,3.05Z" transform="translate(2.02 4.65)" fill="#000"/>
    <path id="패스_80" data-name="패스 80" d="M265.9,402.634h6.87v11.149h2.869V402.634h6.87v-3.908H265.9v3.908Z" transform="translate(1.734 10.719)" fill="#000"/>
    <path id="패스_81" data-name="패스 81" d="M278.083,387.721h-1.432a33.751,33.751,0,0,1,1.864,8.133,77.947,77.947,0,0,1,.458,7.921,76.511,76.511,0,0,1-.444,7.919,33.954,33.954,0,0,1-1.861,8.13H278.1a30.375,30.375,0,0,0,2.009-6.4,50.41,50.41,0,0,0-.006-19.315,30.751,30.751,0,0,0-2.017-6.385Z" transform="translate(7.686 4.626)" fill="#000"/>
    <path id="패스_82" data-name="패스 82" d="M354.53,415.676c-1.642-.118-3.277-.261-4.88-.418V386.051l-9.32,1.979v1.241c3.211.116,4.052,1.176,4.052,5.512v19.888c-5.843-.713-10.964-1.552-14.339-2.111v-8.29h4.28v-5.09h-4.28V385.91h-6.858v2.654h.659a1.057,1.057,0,0,1,.987.618,2.7,2.7,0,0,1,.331,1.282v21.358a54.411,54.411,0,0,0-7.91-.488v-2.77a7.264,7.264,0,0,0,2.9-3.053,9.716,9.716,0,0,0,1.126-4.691,10.628,10.628,0,0,0-.218-2.146,9.377,9.377,0,0,0-.611-1.927h3.4V392.1h-6.692v-5.972H310.7v1.945h.3a.966.966,0,0,1,.836.466,2.113,2.113,0,0,1,.315,1.217V392.1h-6.757v4.644h3.393a9.453,9.453,0,0,0-.609,1.9,10.587,10.587,0,0,0-.211,2.17,9.6,9.6,0,0,0,1.283,5,6.982,6.982,0,0,0,3.264,3v2.895a63.651,63.651,0,0,0-11.309,2.787s5.441-1.762,22.823,1.4c.339.067.729.143,1.14.217v10.495h4.882v-9.592c11.828,2.2,21.776,3.869,31.1,1.162a55.974,55.974,0,0,0,11.589-4.631s-5.672,3.031-18.2,2.121Zm-38.517-12.4a1.609,1.609,0,0,1-1.4,1.081c-.547,0-1.01-.362-1.383-1.081a5.659,5.659,0,0,1,0-4.913c.373-.722.836-1.086,1.383-1.086a1.61,1.61,0,0,1,1.4,1.086,5.79,5.79,0,0,1,0,4.913Z" transform="translate(21.277 3.623)" fill="#000"/>
    <path id="패스_83" data-name="패스 83" d="M341.984,392.265c0-2.68,2.752-3.991,4.784-3.991,3.553,0,6.6,2.365,7.551,2.992V386.6a28.994,28.994,0,0,0-7.11-1.06c-7.484,0-10.408,3.862-10.408,8.343,0,2.153.311,4.942,4.805,7.3,5.747,3.011,16.832,3.865,11.41,12.574a7.537,7.537,0,0,0,3.207-6.483c0-9.527-14.239-8.032-14.239-15Z" transform="translate(40.989 3.417)" fill="#000"/>
    <path id="패스_84" data-name="패스 84" d="M335.457,383.263a3.894,3.894,0,1,1-3.893-3.9,3.894,3.894,0,0,1,3.893,3.9Z" transform="translate(35.933 0)" fill="#000"/>
    <path id="패스_85" data-name="패스 85" d="M334.878,383.11a3.467,3.467,0,1,1-3.466-3.468,3.469,3.469,0,0,1,3.466,3.468Z" transform="translate(36.085 0.153)" fill="#000"/>
    <path id="패스_86" data-name="패스 86" d="M327.995,383.077a3.414,3.414,0,1,1,3.417,3.413,3.414,3.414,0,0,1-3.417-3.413Z" transform="translate(36.113 0.163)" fill="#000"/>
    <path id="패스_87" data-name="패스 87" d="M328.046,383.049a3.361,3.361,0,1,1,3.365,3.362,3.364,3.364,0,0,1-3.365-3.362Z" transform="translate(36.142 0.173)" fill="#000"/>
    <path id="패스_88" data-name="패스 88" d="M328.1,383.017a3.308,3.308,0,1,1,3.317,3.309,3.306,3.306,0,0,1-3.317-3.309Z" transform="translate(36.17 0.183)" fill="#000"/>
    <path id="패스_89" data-name="패스 89" d="M328.147,382.986a3.257,3.257,0,1,1,3.267,3.256,3.255,3.255,0,0,1-3.267-3.256Z" transform="translate(36.198 0.194)" fill="#000"/>
    <path id="패스_90" data-name="패스 90" d="M328.2,382.957a3.2,3.2,0,1,1,3.218,3.2,3.2,3.2,0,0,1-3.218-3.2Z" transform="translate(36.226 0.203)" fill="#000"/>
    <path id="패스_91" data-name="패스 91" d="M328.249,382.924a3.152,3.152,0,1,1,3.169,3.154,3.151,3.151,0,0,1-3.169-3.154Z" transform="translate(36.254 0.213)" fill="#000"/>
    <path id="패스_92" data-name="패스 92" d="M328.3,382.893a3.1,3.1,0,1,1,3.118,3.1,3.1,3.1,0,0,1-3.118-3.1Z" transform="translate(36.282 0.223)" fill="#000"/>
    <path id="패스_93" data-name="패스 93" d="M328.351,382.864a3.048,3.048,0,1,1,3.072,3.048,3.043,3.043,0,0,1-3.072-3.048Z" transform="translate(36.31 0.234)" fill="#000"/>
    <path id="패스_94" data-name="패스 94" d="M328.4,382.835a2.995,2.995,0,1,1,3.022,3,2.994,2.994,0,0,1-3.022-3Z" transform="translate(36.339 0.243)" fill="#000"/>
    <path id="패스_95" data-name="패스 95" d="M328.452,382.8a2.941,2.941,0,0,1,2.915-2.977,2.971,2.971,0,0,1,2.974,2.947,2.944,2.944,0,1,1-5.888.03Z" transform="translate(36.366 0.253)" fill="#000"/>
    <path id="패스_96" data-name="패스 96" d="M328.5,382.772a2.891,2.891,0,1,1,2.921,2.893,2.917,2.917,0,0,1-2.921-2.893Z" transform="translate(36.395 0.264)" fill="#000"/>
    <path id="패스_97" data-name="패스 97" d="M328.556,382.739a2.831,2.831,0,0,1,2.8-2.88,2.87,2.87,0,0,1,2.871,2.843,2.831,2.831,0,0,1-2.806,2.879,2.86,2.86,0,0,1-2.868-2.842Z" transform="translate(36.424 0.273)" fill="#000"/>
    <path id="패스_98" data-name="패스 98" d="M328.605,382.71a2.777,2.777,0,0,1,2.75-2.832,2.817,2.817,0,0,1,2.821,2.789,2.778,2.778,0,0,1-2.748,2.831,2.815,2.815,0,0,1-2.823-2.787Z" transform="translate(36.451 0.283)" fill="#000"/>
    <path id="패스_99" data-name="패스 99" d="M328.655,382.679a2.731,2.731,0,0,1,2.7-2.784,2.773,2.773,0,0,1,2.775,2.739,2.733,2.733,0,0,1-2.7,2.784,2.774,2.774,0,0,1-2.775-2.739Z" transform="translate(36.479 0.293)" fill="#000"/>
    <path id="패스_100" data-name="패스 100" d="M328.707,382.647a2.676,2.676,0,0,1,2.638-2.734,2.721,2.721,0,0,1,2.725,2.689,2.675,2.675,0,0,1-2.64,2.731,2.716,2.716,0,0,1-2.724-2.686Z" transform="translate(36.507 0.303)" fill="#000"/>
    <path id="패스_101" data-name="패스 101" d="M328.758,382.616a2.626,2.626,0,0,1,2.584-2.686,2.673,2.673,0,0,1,2.675,2.635,2.628,2.628,0,0,1-2.587,2.688,2.666,2.666,0,0,1-2.672-2.637Z" transform="translate(36.536 0.312)" fill="#000"/>
    <path id="패스_102" data-name="패스 102" d="M328.809,382.587a2.571,2.571,0,0,1,2.528-2.638,2.613,2.613,0,0,1,2.623,2.581,2.571,2.571,0,0,1-2.528,2.641,2.623,2.623,0,0,1-2.623-2.584Z" transform="translate(36.564 0.323)" fill="#000"/>
    <path id="패스_103" data-name="패스 103" d="M328.86,382.557a2.516,2.516,0,0,1,2.473-2.588,2.568,2.568,0,0,1,2.576,2.528,2.517,2.517,0,0,1-2.473,2.587,2.568,2.568,0,0,1-2.576-2.526Z" transform="translate(36.592 0.334)" fill="#000"/>
    <path id="패스_104" data-name="패스 104" d="M328.91,382.527a2.472,2.472,0,0,1,2.419-2.542,2.523,2.523,0,0,1,2.526,2.481A2.461,2.461,0,0,1,331.435,385a2.519,2.519,0,0,1-2.525-2.475Z" transform="translate(36.62 0.343)" fill="#000"/>
    <path id="패스_105" data-name="패스 105" d="M328.961,382.492a2.41,2.41,0,0,1,2.365-2.487,2.461,2.461,0,0,1,2.473,2.424,2.409,2.409,0,0,1-2.362,2.491,2.467,2.467,0,0,1-2.477-2.427Z" transform="translate(36.648 0.354)" fill="#000"/>
    <path id="패스_106" data-name="패스 106" d="M329.013,382.462a2.355,2.355,0,0,1,2.309-2.439,2.413,2.413,0,0,1,2.425,2.372,2.365,2.365,0,0,1-2.312,2.442,2.412,2.412,0,0,1-2.422-2.376Z" transform="translate(36.677 0.364)" fill="#000"/>
    <path id="패스_107" data-name="패스 107" d="M329.062,382.435a2.313,2.313,0,0,1,2.254-2.4,2.369,2.369,0,0,1,2.377,2.321,2.306,2.306,0,0,1-2.256,2.394,2.371,2.371,0,0,1-2.376-2.32Z" transform="translate(36.704 0.372)" fill="#000"/>
    <path id="패스_108" data-name="패스 108" d="M329.113,382.4a2.257,2.257,0,0,1,2.2-2.344,2.32,2.32,0,0,1,2.327,2.271,2.256,2.256,0,0,1-2.2,2.344,2.319,2.319,0,0,1-2.329-2.271Z" transform="translate(36.732 0.383)" fill="#000"/>
    <path id="패스_109" data-name="패스 109" d="M329.165,382.373a2.207,2.207,0,0,1,2.144-2.3,2.269,2.269,0,0,1,2.276,2.22,2.2,2.2,0,0,1-2.144,2.295,2.266,2.266,0,0,1-2.276-2.217Z" transform="translate(36.761 0.393)" fill="#000"/>
    <path id="패스_110" data-name="패스 110" d="M329.216,382.341a2.152,2.152,0,0,1,2.087-2.248,2.217,2.217,0,0,1,2.228,2.167,2.153,2.153,0,0,1-2.088,2.25,2.221,2.221,0,0,1-2.226-2.169Z" transform="translate(36.789 0.402)" fill="#000"/>
    <path id="패스_111" data-name="패스 111" d="M329.267,382.309a2.1,2.1,0,0,1,2.031-2.2,2.172,2.172,0,0,1,2.18,2.116,2.1,2.1,0,0,1-2.034,2.2,2.17,2.17,0,0,1-2.177-2.116Z" transform="translate(36.817 0.413)" fill="#000"/>
    <path id="패스_112" data-name="패스 112" d="M329.317,382.28a2.045,2.045,0,0,1,1.979-2.15,2.116,2.116,0,0,1,2.127,2.062,2.04,2.04,0,0,1-1.978,2.147,2.114,2.114,0,0,1-2.129-2.059Z" transform="translate(36.845 0.423)" fill="#000"/>
    <path id="패스_113" data-name="패스 113" d="M329.369,382.25a2,2,0,0,1,1.92-2.1,2.07,2.07,0,0,1,2.082,2.01,2,2,0,0,1-1.922,2.1,2.068,2.068,0,0,1-2.08-2.009Z" transform="translate(36.873 0.433)" fill="#000"/>
    <path id="패스_114" data-name="패스 114" d="M329.422,382.215a1.935,1.935,0,0,1,1.863-2.048,2.021,2.021,0,0,1,2.032,1.958,1.944,1.944,0,0,1-1.868,2.051,2.016,2.016,0,0,1-2.028-1.961Z" transform="translate(36.902 0.443)" fill="#000"/>
    <path id="패스_115" data-name="패스 115" d="M329.472,382.188a1.883,1.883,0,0,1,1.81-2,1.973,1.973,0,0,1,1.982,1.906,1.89,1.89,0,0,1-1.816,2,1.964,1.964,0,0,1-1.976-1.9Z" transform="translate(36.93 0.453)" fill="#000"/>
    <path id="패스_116" data-name="패스 116" d="M329.521,382.156a1.839,1.839,0,0,1,1.757-1.954,1.921,1.921,0,0,1,1.933,1.86,1.831,1.831,0,0,1-1.757,1.948,1.917,1.917,0,0,1-1.933-1.854Z" transform="translate(36.957 0.462)" fill="#000"/>
    <path id="패스_117" data-name="패스 117" d="M329.572,382.125a1.783,1.783,0,0,1,1.7-1.9,1.868,1.868,0,0,1,1.88,1.8,1.782,1.782,0,0,1-1.7,1.9,1.866,1.866,0,0,1-1.883-1.8Z" transform="translate(36.985 0.473)" fill="#000"/>
    <path id="패스_118" data-name="패스 118" d="M329.624,382.095a1.731,1.731,0,0,1,1.645-1.857,1.815,1.815,0,0,1,1.83,1.749,1.727,1.727,0,0,1-1.644,1.858,1.818,1.818,0,0,1-1.832-1.751Z" transform="translate(37.014 0.483)" fill="#000"/>
    <path id="패스_119" data-name="패스 119" d="M329.674,382.063a1.678,1.678,0,0,1,1.594-1.805,1.768,1.768,0,0,1,1.779,1.7,1.679,1.679,0,0,1-1.591,1.808,1.774,1.774,0,0,1-1.782-1.7Z" transform="translate(37.042 0.493)" fill="#000"/>
    <path id="패스_120" data-name="패스 120" d="M329.725,382.031a1.627,1.627,0,0,1,1.538-1.757,1.719,1.719,0,0,1,1.731,1.645,1.627,1.627,0,0,1-1.535,1.76,1.723,1.723,0,0,1-1.734-1.648Z" transform="translate(37.07 0.502)" fill="#000"/>
    <path id="패스_121" data-name="패스 121" d="M329.776,382a1.573,1.573,0,0,1,1.482-1.707,1.662,1.662,0,0,1,1.679,1.594,1.568,1.568,0,0,1-1.479,1.709,1.669,1.669,0,0,1-1.683-1.6Z" transform="translate(37.098 0.513)" fill="#000"/>
    <path id="패스_122" data-name="패스 122" d="M329.828,381.973a1.522,1.522,0,0,1,1.423-1.662,1.62,1.62,0,0,1,1.636,1.544,1.523,1.523,0,0,1-1.426,1.659,1.618,1.618,0,0,1-1.633-1.541Z" transform="translate(37.126 0.522)" fill="#000"/>
    <path id="패스_123" data-name="패스 123" d="M329.877,381.941a1.473,1.473,0,0,1,1.373-1.611,1.567,1.567,0,0,1,1.583,1.487,1.47,1.47,0,0,1-1.373,1.614,1.568,1.568,0,0,1-1.583-1.49Z" transform="translate(37.154 0.533)" fill="#000"/>
    <path id="패스_124" data-name="패스 124" d="M329.93,381.909a1.42,1.42,0,0,1,1.313-1.563,1.519,1.519,0,0,1,1.537,1.44,1.419,1.419,0,0,1-1.318,1.563,1.517,1.517,0,0,1-1.532-1.44Z" transform="translate(37.183 0.542)" fill="#000"/>
    <path id="패스_125" data-name="패스 125" d="M329.98,381.882a1.369,1.369,0,0,1,1.262-1.518,1.474,1.474,0,0,1,1.485,1.386,1.369,1.369,0,0,1-1.26,1.518,1.47,1.47,0,0,1-1.487-1.386Z" transform="translate(37.21 0.552)" fill="#000"/>
    <path id="패스_126" data-name="패스 126" d="M330.031,381.849a1.318,1.318,0,0,1,1.209-1.467,1.419,1.419,0,0,1,1.431,1.335,1.313,1.313,0,0,1-1.2,1.467,1.423,1.423,0,0,1-1.437-1.335Z" transform="translate(37.238 0.562)" fill="#000"/>
    <path id="패스_127" data-name="패스 127" d="M330.083,381.821a1.267,1.267,0,0,1,1.151-1.422,1.375,1.375,0,0,1,1.384,1.286,1.261,1.261,0,0,1-1.15,1.415,1.366,1.366,0,0,1-1.386-1.28Z" transform="translate(37.266 0.571)" fill="#000"/>
    <path id="패스_128" data-name="패스 128" d="M330.133,381.788a1.214,1.214,0,0,1,1.1-1.369,1.314,1.314,0,0,1,1.335,1.229,1.213,1.213,0,0,1-1.1,1.37,1.318,1.318,0,0,1-1.336-1.23Z" transform="translate(37.294 0.582)" fill="#000"/>
    <path id="패스_129" data-name="패스 129" d="M330.186,381.756a1.156,1.156,0,0,1,1.038-1.318,1.266,1.266,0,0,1,1.288,1.178,1.16,1.16,0,0,1-1.041,1.317,1.26,1.26,0,0,1-1.285-1.178Z" transform="translate(37.323 0.593)" fill="#000"/>
    <path id="패스_130" data-name="패스 130" d="M330.238,381.727a1.108,1.108,0,0,1,.984-1.272,1.218,1.218,0,0,1,1.235,1.128,1.1,1.1,0,0,1-.985,1.269,1.212,1.212,0,0,1-1.234-1.125Z" transform="translate(37.351 0.602)" fill="#000"/>
    <path id="패스_131" data-name="패스 131" d="M330.286,381.695a1.055,1.055,0,0,1,.932-1.22,1.163,1.163,0,0,1,1.185,1.074,1.052,1.052,0,0,1-.929,1.218,1.168,1.168,0,0,1-1.189-1.072Z" transform="translate(37.377 0.613)" fill="#000"/>
    <path id="패스_132" data-name="패스 132" d="M330.337,381.663a1.009,1.009,0,0,1,.876-1.172,1.123,1.123,0,0,1,1.14,1.022,1.011,1.011,0,0,1-.881,1.173,1.118,1.118,0,0,1-1.136-1.024Z" transform="translate(37.405 0.622)" fill="#000"/>
    <path id="패스_133" data-name="패스 133" d="M330.389,381.635a.957.957,0,0,1,.817-1.126,1.067,1.067,0,0,1,1.089.969.953.953,0,0,1-.819,1.125,1.065,1.065,0,0,1-1.088-.968Z" transform="translate(37.434 0.631)" fill="#000"/>
    <path id="패스_134" data-name="패스 134" d="M330.441,381.605a.9.9,0,0,1,.764-1.078,1.024,1.024,0,0,1,1.039.918.91.91,0,0,1-.767,1.08,1.023,1.023,0,0,1-1.036-.92Z" transform="translate(37.462 0.641)" fill="#000"/>
    <path id="패스_135" data-name="패스 135" d="M330.491,381.575a.856.856,0,0,1,.708-1.029.967.967,0,0,1,.991.865.857.857,0,0,1-.707,1.03.973.973,0,0,1-.993-.867Z" transform="translate(37.489 0.652)" fill="#000"/>
    <path id="패스_136" data-name="패스 136" d="M330.544,381.543a.8.8,0,0,1,.654-.977.915.915,0,0,1,.94.813.8.8,0,0,1-.654.977.914.914,0,0,1-.94-.813Z" transform="translate(37.517 0.662)" fill="#000"/>
    <path id="패스_137" data-name="패스 137" d="M330.6,381.512a.754.754,0,0,1,.6-.929.868.868,0,0,1,.889.763.752.752,0,0,1-.6.928.867.867,0,0,1-.89-.761Z" transform="translate(37.545 0.672)" fill="#000"/>
    <path id="패스_138" data-name="패스 138" d="M330.645,381.483a.708.708,0,0,1,.542-.882.82.82,0,0,1,.844.707.707.707,0,0,1-.545.883.817.817,0,0,1-.841-.707Z" transform="translate(37.572 0.681)" fill="#000"/>
    <path id="패스_139" data-name="패스 139" d="M330.7,381.451a.658.658,0,0,1,.486-.831.762.762,0,0,1,.792.656.654.654,0,0,1-.491.831.758.758,0,0,1-.788-.656Z" transform="translate(37.6 0.691)" fill="#000"/>
    <path id="패스_140" data-name="패스 140" d="M330.749,381.422a.61.61,0,0,1,.433-.785.714.714,0,0,1,.74.6.609.609,0,0,1-.429.786.72.72,0,0,1-.744-.606Z" transform="translate(37.627 0.701)" fill="#000"/>
    <path id="패스_141" data-name="패스 141" d="M330.8,381.39a.563.563,0,0,1,.379-.735.665.665,0,0,1,.688.553.563.563,0,0,1-.378.736.665.665,0,0,1-.69-.555Z" transform="translate(37.655 0.71)" fill="#000"/>
    <path id="패스_142" data-name="패스 142" d="M330.854,381.359a.516.516,0,0,1,.322-.687.619.619,0,0,1,.642.5.519.519,0,0,1-.323.69.618.618,0,0,1-.64-.505Z" transform="translate(37.682 0.72)" fill="#000"/>
    <path id="패스_143" data-name="패스 143" d="M330.906,381.332a.473.473,0,0,1,.264-.639.559.559,0,0,1,.6.449.475.475,0,0,1-.269.639.566.566,0,0,1-.592-.449Z" transform="translate(37.708 0.73)" fill="#000"/>
  </g>
</svg>
