<svg width="32" height="37" viewBox="0 0 32 37" fill="none" xmlns="http://www.w3.org/2000/svg">
<path d="M25.6144 20.981C26.1829 20.981 26.7347 21.048 27.2865 21.1318V15.9524C27.2865 14.1086 25.7983 12.6 23.9423 12.6H22.2703V9.24765C22.2703 4.62137 18.5248 0.866699 13.9099 0.866699C9.29499 0.866699 5.54955 4.62137 5.54955 9.24765V12.6H3.87748C2.0382 12.6 0.533333 14.0918 0.533333 15.9524V32.7143C0.533333 34.5749 2.02148 36.0667 3.87748 36.0667H16.9364C16.0836 34.5916 15.582 32.8819 15.582 31.0381C15.582 25.4899 20.0799 20.981 25.6144 20.981ZM8.89369 9.24765C8.89369 6.46518 11.1343 4.21908 13.9099 4.21908C16.6856 4.21908 18.9261 6.46518 18.9261 9.24765V12.6H8.89369V9.24765ZM13.9099 27.6857C12.0706 27.6857 10.5658 26.1939 10.5658 24.3334C10.5658 22.4728 12.0706 20.981 13.9099 20.981C15.7492 20.981 17.2541 22.4728 17.2541 24.3334C17.2541 26.1939 15.7659 27.6857 13.9099 27.6857ZM31.4667 28.1048L23.5243 36.0667L18.9261 31.0381L20.8657 29.0937L23.5243 31.7589L29.5271 25.7414L31.4667 28.1048Z" fill="#FFFFFF"/>
</svg>
