<svg width="57" height="68" viewBox="0 0 57 68" fill="none" xmlns="http://www.w3.org/2000/svg">
<path d="M3.16667 0H53.8333C54.6732 0 55.4786 0.325648 56.0725 0.905306C56.6664 1.48496 57 2.27115 57 3.09091V15.4545C57 16.2743 56.6664 17.0605 56.0725 17.6401C55.4786 18.2198 54.6732 18.5455 53.8333 18.5455H3.16667C2.32681 18.5455 1.52136 18.2198 0.927495 17.6401C0.33363 17.0605 0 16.2743 0 15.4545V3.09091C0 2.27115 0.33363 1.48496 0.927495 0.905306C1.52136 0.325648 2.32681 0 3.16667 0ZM3.16667 24.7273H53.8333C54.6732 24.7273 55.4786 25.0529 56.0725 25.6326C56.6664 26.2122 57 26.9984 57 27.8182V40.1818C57 41.0016 56.6664 41.7878 56.0725 42.3674C55.4786 42.9471 54.6732 43.2727 53.8333 43.2727H3.16667C2.32681 43.2727 1.52136 42.9471 0.927495 42.3674C0.33363 41.7878 0 41.0016 0 40.1818V27.8182C0 26.9984 0.33363 26.2122 0.927495 25.6326C1.52136 25.0529 2.32681 24.7273 3.16667 24.7273ZM3.16667 49.4545H53.8333C54.6732 49.4545 55.4786 49.7802 56.0725 50.3598C56.6664 50.9395 57 51.7257 57 52.5455V64.9091C57 65.7289 56.6664 66.515 56.0725 67.0947C55.4786 67.6744 54.6732 68 53.8333 68H3.16667C2.32681 68 1.52136 67.6744 0.927495 67.0947C0.33363 66.515 0 65.7289 0 64.9091V52.5455C0 51.7257 0.33363 50.9395 0.927495 50.3598C1.52136 49.7802 2.32681 49.4545 3.16667 49.4545ZM19 12.3636H22.1667V6.18182H19V12.3636ZM19 37.0909H22.1667V30.9091H19V37.0909ZM19 61.8182H22.1667V55.6364H19V61.8182ZM6.33333 6.18182V12.3636H12.6667V6.18182H6.33333ZM6.33333 30.9091V37.0909H12.6667V30.9091H6.33333ZM6.33333 55.6364V61.8182H12.6667V55.6364H6.33333Z" fill="#0067C5"/>
</svg>
