<svg width="40" height="32" viewBox="0 0 40 32" fill="none" xmlns="http://www.w3.org/2000/svg">
<path d="M6.1226 14.571C4.91052 15.7597 4.31327 17.1932 4.31327 18.8889C4.31327 20.5846 4.91052 22.0181 6.1226 23.2593C7.31711 24.413 8.75755 25.0074 10.4615 25.0074H22.0377C21.9499 25.5843 21.8796 26.1612 21.8796 26.7555C21.8796 27.3499 21.9499 27.9268 22.0377 28.5037H10.4615C7.82653 28.5037 5.52534 27.6296 3.62818 25.7591C1.74858 23.9235 0.799999 21.6684 0.799999 19.0287C0.799999 16.7561 1.48509 14.7283 2.85526 12.9452C4.22543 11.1621 6.0699 10.0258 8.26569 9.53629C9.00348 6.86162 10.4615 4.69392 12.6573 3.03318C14.8531 1.37244 17.3475 0.533325 20.123 0.533325C23.5484 0.533325 26.4468 1.72207 28.8359 4.09955C31.2249 6.47703 32.4194 9.36147 32.4194 12.7704C34.4395 12.9976 36.1083 13.8717 37.4434 15.3926C38.3393 16.389 38.9189 17.5078 39.2 18.749C37.3731 17.2107 35.0543 16.2667 32.4194 16.2667C32.2262 16.2667 32.0505 16.2667 31.8573 16.2667C31.7519 16.2667 31.6465 16.2667 31.5411 16.2667H28.9061V12.7704C28.9061 10.3579 28.0278 8.2951 26.3414 6.58192C24.6199 4.9037 22.5471 4.02962 20.123 4.02962C17.6988 4.02962 15.626 4.9037 13.9045 6.58192C12.2181 8.2951 11.3398 10.3579 11.3398 12.7704H10.4615C8.75755 12.7704 7.31711 13.3647 6.1226 14.571ZM27.1495 25.0074H30.6628V32H34.176V25.0074H37.6893L32.4194 19.763L27.1495 25.0074Z" fill="#FFFFFF"/>
</svg>
