<svg width="38" height="37" viewBox="0 0 38 37" fill="none" xmlns="http://www.w3.org/2000/svg">
<path d="M35.4606 28.6915V27.0153L37.3273 25.6743C37.497 25.5067 37.6667 25.3391 37.497 25.1715L35.8 22.3219C35.8 22.1543 35.4606 22.1543 35.2909 22.1543L33.2545 22.9924C32.7455 22.6572 32.2364 22.3219 31.7273 22.1543L31.3879 19.9753C31.3879 19.8076 31.2182 19.64 31.0485 19.64H27.6545C27.3152 19.64 27.1455 19.8076 27.1455 19.9753L26.8061 22.1543C26.297 22.4896 25.9576 22.6572 25.4485 22.9924L23.4121 22.1543C23.2424 22.1543 23.0727 22.1543 22.903 22.3219L21.2061 25.1715C21.2061 25.3391 21.2061 25.5067 21.3758 25.6743L23.2424 27.0153V28.6915L21.3758 30.0324C21.2061 30.2 21.0364 30.3677 21.2061 30.5353L22.903 33.3848C23.0727 33.5524 23.2424 33.5524 23.4121 33.5524L25.4485 32.7143C25.7879 33.0496 26.297 33.3848 26.8061 33.5524L27.1455 35.7315C27.3152 35.8991 27.4848 36.0667 27.6545 36.0667H31.0485C31.2182 36.0667 31.3879 35.8991 31.3879 35.7315L31.7273 33.5524C32.2364 33.2172 32.5758 33.0496 33.0849 32.7143L35.1212 33.3848C35.2909 33.3848 35.4606 33.3848 35.6303 33.2172L37.3273 30.3677C37.497 30.2 37.497 30.0324 37.3273 30.0324L35.4606 28.6915ZM29.1818 30.2C27.8242 30.2 26.6364 29.0267 26.6364 27.6857C26.6364 26.3448 27.8242 25.1715 29.1818 25.1715C30.5394 25.1715 31.7273 26.3448 31.7273 27.6857C31.7273 29.0267 30.5394 30.2 29.1818 30.2ZM19.5091 34.3905H3.72728C1.86061 34.3905 0.333336 32.8819 0.333336 31.0381V4.21908C0.333336 2.37527 1.86061 0.866699 3.72728 0.866699H34.2727C36.1394 0.866699 37.6667 2.37527 37.6667 4.21908V19.4724C36.6485 18.4667 35.4606 17.6286 34.2727 17.1257V7.57146H3.72728V31.0381H17.8121C18.1515 32.2115 18.6606 33.3848 19.5091 34.3905Z" fill="#0067C5"/>
</svg>
