<svg width="38" height="35" viewBox="0 0 38 35" fill="none" xmlns="http://www.w3.org/2000/svg">
<path d="M33.8364 24.4532V4.29323H4.16363V24.4532H33.8364ZM33.8364 0.933228C34.7108 0.933228 35.5494 1.28723 36.1677 1.91735C36.786 2.54747 37.1333 3.4021 37.1333 4.29323V24.4532C37.1333 25.3444 36.786 26.199 36.1677 26.8291C35.5494 27.4592 34.7108 27.8132 33.8364 27.8132H22.297V31.1732H25.5939V34.5332H12.4061V31.1732H15.703V27.8132H4.16363C2.33381 27.8132 0.866661 26.3012 0.866661 24.4532V4.29323C0.866661 2.42843 2.33381 0.933228 4.16363 0.933228H33.8364ZM7.4606 7.65323H22.297V16.0532H7.4606V7.65323ZM23.9454 7.65323H30.5394V11.0132H23.9454V7.65323ZM30.5394 12.6932V21.0932H23.9454V12.6932H30.5394ZM7.4606 17.7332H14.0545V21.0932H7.4606V17.7332ZM15.703 17.7332H22.297V21.0932H15.703V17.7332Z" fill="#0067C5"/>
</svg>
