<svg width="36" height="38" viewBox="0 0 36 38" fill="none" xmlns="http://www.w3.org/2000/svg">
<path d="M19.6657 0.866699C11.7941 0.866699 5.29148 6.47155 4.43588 13.8897L1.69793 17.3515C0.842321 18.6703 0.671199 20.3188 1.35569 21.6376C2.04017 22.7915 3.0669 23.6158 4.26475 23.7806V25.594C4.26475 28.5612 6.48934 31.1988 9.39841 32.0231V37.1334H28.2218V28.0667C32.4998 25.2643 35.0667 20.8134 35.0667 15.7031C35.0667 7.46064 28.2218 0.866699 19.6657 0.866699ZM24.7994 26.0885V33.8364H12.8208V28.8909H11.1096C9.22728 28.8909 7.68719 27.4073 7.68719 25.594V20.6485H5.12036C4.43588 20.6485 3.92251 19.8243 4.43588 19.3297L7.68719 15.2085C8.02943 9.10912 13.1631 4.16367 19.6657 4.16367C26.3395 4.16367 31.6442 9.27397 31.6442 15.7031C31.6442 20.3188 28.9063 24.2752 24.7994 26.0885Z" fill="#0067C5"/>
</svg>
