<svg width="371" height="46" xmlns="http://www.w3.org/2000/svg" xmlns:xlink="http://www.w3.org/1999/xlink" xml:space="preserve" overflow="hidden"><g transform="translate(-2502 -939)"><g><g><g><g><path d="M41.9863 21.0005C41.9863 32.5906 32.5906 41.9863 21.0005 41.9863 9.41044 41.9863 0.0148073 32.5906 0.0148073 21.0005 0.0148073 9.41044 9.41044 0.0148073 21.0005 0.0148073 32.5906 0.0148073 41.9863 9.41044 41.9863 21.0005Z" stroke="#231815" stroke-width="0.0284745" stroke-linecap="butt" stroke-linejoin="miter" stroke-miterlimit="10" stroke-opacity="1" fill="#231815" fill-rule="nonzero" fill-opacity="1" transform="matrix(1.04762 0 0 1 2505 940)"/><path d="M25.0359 18.5791 18.5791 18.5791C16.7954 18.5791 15.3501 17.1337 15.3501 15.3501 15.3501 13.5664 16.7954 12.121 18.5791 12.121L25.0359 12.121C26.8196 12.121 28.265 13.5664 28.265 15.3501 28.265 16.2419 28.9882 16.964 29.8789 16.964 30.7696 16.964 31.4928 16.2407 31.4928 15.3501 31.4928 11.7839 28.6021 8.89317 25.0359 8.89317L18.5791 8.89317C15.0129 8.89317 12.1222 11.7839 12.1222 15.3501 12.1222 16.3182 12.3352 17.2362 12.7167 18.0608 13.096 18.8786 13.6404 19.6041 14.3079 20.193 12.9673 21.3764 12.1222 23.1077 12.1222 25.0359 12.1222 28.6021 15.0129 31.4928 18.5791 31.4928L25.0359 31.4928C28.6021 31.4928 31.4928 28.6021 31.4928 25.0359 31.4928 21.4698 28.6021 18.5791 25.0359 18.5791ZM25.0359 28.265 18.5791 28.265C16.7954 28.265 15.3501 26.8196 15.3501 25.0359 15.3501 23.2523 16.7954 21.8069 18.5791 21.8069L25.0359 21.8069C26.8196 21.8069 28.265 23.2523 28.265 25.0359 28.265 26.8196 26.8196 28.265 25.0359 28.265Z" fill="#24A5DE" fill-rule="nonzero" fill-opacity="1" transform="matrix(1.04762 0 0 1 2505 940)"/><path d="M16.964 23.422C13.3978 23.422 10.5071 20.5313 10.5071 16.9651 10.5071 13.399 13.3978 10.5082 16.964 10.5082 16.964 10.5082 23.4209 10.5082 23.4209 10.5082 26.987 10.5082 29.8778 13.399 29.8778 16.9651 29.8778 17.8569 29.1545 18.5791 28.2638 18.5791 27.3731 18.5791 26.6499 17.8558 26.6499 16.9651 26.6499 15.1815 25.2045 13.7361 23.4209 13.7361L16.964 13.7361C15.1803 13.7361 13.735 15.1815 13.735 16.9651 13.735 18.7488 15.1803 20.1941 16.964 20.1941L23.4209 20.1941C24.3127 20.1941 25.0348 20.9174 25.0348 21.8081 25.0348 22.6988 24.3116 23.422 23.4209 23.422 23.4209 23.422 16.964 23.422 16.964 23.422Z" fill="#FFFFFF" fill-rule="nonzero" fill-opacity="1" transform="matrix(1.04762 0 0 1 2505 940)"/><path d="M11.6256 23.0177C10.9206 24.053 10.5071 25.3036 10.5071 26.6499 10.5071 30.216 13.3978 33.1068 16.964 33.1068 16.964 33.1068 23.4209 33.1068 23.4209 33.1068 26.987 33.1068 29.8778 30.216 29.8778 26.6499 29.8778 25.7581 29.1545 25.0359 28.2638 25.0359 27.3731 25.0359 26.6499 25.7592 26.6499 26.6499 26.6499 28.4335 25.2045 29.8789 23.4209 29.8789L16.964 29.8789C15.1803 29.8789 13.735 28.4335 13.735 26.6499 13.735 25.8868 13.9992 25.1863 14.4411 24.6339 13.3899 24.2888 12.4343 23.733 11.6233 23.0177Z" fill="#FFFFFF" fill-rule="nonzero" fill-opacity="1" transform="matrix(1.04762 0 0 1 2505 940)"/></g></g></g><g><g><g><path d="M5.01674 30.9858C4.27899 30.9858 3.68878 30.7644 3.24613 30.248 2.7297 29.7316 2.50837 29.1414 2.50837 28.4774L2.50837 13.2796C2.50837 12.5419 2.7297 11.9517 3.24613 11.509 3.76256 10.9926 4.35276 10.7712 5.01674 10.7712L18.8866 10.7712C19.6243 10.7712 20.2145 10.9926 20.6572 11.509 21.0998 12.0254 21.3949 12.6156 21.3949 13.2796L21.3949 23.3869 7.59889 23.3869 7.59889 25.8952 18.9603 25.8952 18.9603 30.912 5.01674 30.912ZM16.452 18.3701 16.452 15.8618 7.59889 15.8618 7.59889 18.3701 16.452 18.3701Z" fill="#000000" fill-rule="nonzero" fill-opacity="1" transform="matrix(1.0709 0 0 1 2552 940.085)"/><path d="M25.305 38.5847 25.305 10.7712 41.757 10.7712C42.4948 10.7712 43.085 10.9926 43.5276 11.509 43.9703 12.0254 44.2654 12.6156 44.2654 13.2796L44.2654 28.4774C44.2654 29.2151 44.0441 29.8054 43.5276 30.248 43.0112 30.7644 42.421 30.9858 41.757 30.9858L30.3956 30.9858 30.3956 38.5847 25.305 38.5847ZM39.1749 25.969 39.1749 15.8618 30.3218 15.8618 30.3218 25.969 39.1749 25.969Z" fill="#000000" fill-rule="nonzero" fill-opacity="1" transform="matrix(1.0709 0 0 1 2552 940.085)"/><path d="M48.0279 30.9858 48.0279 25.969 61.8978 25.969 61.8978 23.4606 50.5363 23.4606C49.7985 23.4606 49.2083 23.2393 48.7657 22.7229 48.2493 22.2065 48.0279 21.6163 48.0279 20.9523L48.0279 13.3534C48.0279 12.6156 48.2493 12.0254 48.7657 11.5828 49.2821 11.0663 49.8723 10.845 50.5363 10.845L66.9883 10.845 66.9883 15.9355 53.0447 15.9355 53.0447 18.4439 64.4061 18.4439C65.1439 18.4439 65.7341 18.6652 66.1767 19.1817 66.6194 19.6981 66.9145 20.2883 66.9145 20.9523L66.9145 28.5512C66.9145 29.2889 66.6932 29.8791 66.1767 30.3218 65.6603 30.8382 65.0701 31.0595 64.4061 31.0595L47.9542 31.0595 48.0279 31.0595Z" fill="#000000" fill-rule="nonzero" fill-opacity="1" transform="matrix(1.0709 0 0 1 2552 940.085)"/><path d="M70.7508 30.9858 70.7508 25.969 77.6857 25.969 77.6857 15.8618 70.7508 15.8618 70.7508 10.7712 82.7763 10.7712 82.7763 25.969 89.7112 25.969 89.7112 30.9858 70.7508 30.9858ZM77.7595 8.26287 77.7595 3.17235 82.7763 3.17235 82.7763 8.26287 77.7595 8.26287Z" fill="#000000" fill-rule="nonzero" fill-opacity="1" transform="matrix(1.0709 0 0 1 2552 940.085)"/><path d="M93.5475 30.9858 93.5475 25.969 100.482 25.969 100.482 8.26287 93.5475 8.26287 93.5475 3.17235 105.573 3.17235 105.573 25.969 112.508 25.969 112.508 30.9858C112.508 30.9858 93.5475 30.9858 93.5475 30.9858Z" fill="#000000" fill-rule="nonzero" fill-opacity="1" transform="matrix(1.0709 0 0 1 2552 940.085)"/><path d="M118.779 30.9858C118.041 30.9858 117.451 30.7644 117.008 30.248 116.492 29.7316 116.27 29.1414 116.27 28.4774L116.27 13.2796C116.27 12.5419 116.492 11.9517 117.008 11.509 117.525 10.9926 118.115 10.7712 118.779 10.7712L132.649 10.7712C133.386 10.7712 133.977 10.9926 134.419 11.509 134.862 12.0254 135.157 12.6156 135.157 13.2796L135.157 28.4774C135.157 29.2151 134.936 29.8054 134.419 30.248 133.903 30.7644 133.313 30.9858 132.649 30.9858 132.649 30.9858 118.779 30.9858 118.779 30.9858ZM130.214 25.969 130.214 15.8618 121.361 15.8618 121.361 25.969 130.214 25.969Z" fill="#000000" fill-rule="nonzero" fill-opacity="1" transform="matrix(1.0709 0 0 1 2552 940.085)"/><path d="M139.067 30.9858 139.067 10.7712 155.519 10.7712C156.257 10.7712 156.847 10.9926 157.29 11.509 157.732 12.0254 158.027 12.6156 158.027 13.2796L158.027 30.9858 152.937 30.9858 152.937 15.788 144.084 15.788 144.084 30.9858 139.067 30.9858Z" fill="#000000" fill-rule="nonzero" fill-opacity="1" transform="matrix(1.0709 0 0 1 2552 940.085)"/><path d="M165.553 20.8785 165.553 15.8618 178.168 15.8618 178.168 20.8785C178.168 20.8785 165.553 20.8785 165.553 20.8785Z" fill="#000000" fill-rule="nonzero" fill-opacity="1" transform="matrix(1.0709 0 0 1 2552 940.085)"/><path d="M187.095 30.9858C186.357 30.9858 185.767 30.7644 185.324 30.248 184.808 29.7316 184.587 29.1414 184.587 28.4774L184.587 13.2796C184.587 12.6156 184.808 12.0254 185.324 11.509 185.841 10.9926 186.431 10.7712 187.095 10.7712L198.456 10.7712 198.456 3.17235 203.547 3.17235 203.547 30.9858 187.095 30.9858ZM198.456 25.969 198.456 15.8618 189.603 15.8618 189.603 25.969 198.456 25.969Z" fill="#000000" fill-rule="nonzero" fill-opacity="1" transform="matrix(1.0709 0 0 1 2552 940.085)"/><path d="M209.818 30.9858C209.08 30.9858 208.49 30.7644 208.047 30.248 207.531 29.7316 207.31 29.1414 207.31 28.4774L207.31 13.2796C207.31 12.5419 207.531 11.9517 208.047 11.509 208.564 10.9926 209.154 10.7712 209.818 10.7712L223.688 10.7712C224.425 10.7712 225.016 10.9926 225.458 11.509 225.901 12.0254 226.196 12.6156 226.196 13.2796L226.196 23.3869 212.253 23.3869 212.253 25.8952 223.614 25.8952 223.614 30.912 209.744 30.912 209.818 30.912ZM221.179 18.3701 221.179 15.8618 212.326 15.8618 212.326 18.3701 221.179 18.3701Z" fill="#000000" fill-rule="nonzero" fill-opacity="1" transform="matrix(1.0709 0 0 1 2552 940.085)"/><path d="M230.032 30.9858 230.032 25.969 236.967 25.969 236.967 8.26287 230.032 8.26287 230.032 3.17235 242.058 3.17235 242.058 25.969 248.993 25.969 248.993 30.9858 230.032 30.9858Z" fill="#000000" fill-rule="nonzero" fill-opacity="1" transform="matrix(1.0709 0 0 1 2552 940.085)"/><path d="M261.977 30.9858C261.24 30.9858 260.649 30.7644 260.207 30.248 259.69 29.7316 259.469 29.1414 259.469 28.4774L259.469 15.8618 252.829 15.8618 252.829 10.7712 259.469 10.7712 259.469 3.17235 264.486 3.17235 264.486 10.7712 271.789 10.7712 271.789 15.8618 264.486 15.8618 264.486 25.969 271.789 25.969 271.789 30.9858 261.977 30.9858Z" fill="#000000" fill-rule="nonzero" fill-opacity="1" transform="matrix(1.0709 0 0 1 2552 940.085)"/><path d="M278.134 30.9858C277.396 30.9858 276.806 30.7644 276.364 30.248 275.847 29.7316 275.626 29.1414 275.626 28.4774L275.626 20.8785C275.626 20.1407 275.847 19.5505 276.364 19.1079 276.88 18.5915 277.47 18.3701 278.134 18.3701L289.496 18.3701 289.496 15.8618 278.134 15.8618 278.134 10.7712 292.004 10.7712C292.742 10.7712 293.332 10.9926 293.775 11.509 294.217 12.0254 294.512 12.6156 294.512 13.2796L294.512 30.9858 278.06 30.9858 278.134 30.9858ZM289.496 25.969 289.496 23.4606 280.642 23.4606 280.642 25.969 289.496 25.969Z" fill="#000000" fill-rule="nonzero" fill-opacity="1" transform="matrix(1.0709 0 0 1 2552 940.085)"/></g></g></g></g></g></svg>